<svg xmlns="http://www.w3.org/2000/svg" width="24" height="24" viewBox="0 0 24 24">
  <g id="_3e14e101f2307c62dc5c5fde2f41bb20" data-name="3e14e101f2307c62dc5c5fde2f41bb20" transform="translate(-4 -4)">
    <rect id="Rectangle_2558" data-name="Rectangle 2558" width="24" height="24" transform="translate(4 4)" fill="none"/>
    <path id="Path_3219" data-name="Path 3219" d="M26.295,10.644a.98.98,0,0,1,.705.9V22.618a1.056,1.056,0,0,1-.81.933,18.541,18.541,0,0,1-11.26.015,18.011,18.011,0,0,0-5.677-.923,16.72,16.72,0,0,0-5.039.85,1.094,1.094,0,0,1-.6-.006A.971.971,0,0,1,3,22.618V7.849a1.058,1.058,0,0,1,.81-.934A18.562,18.562,0,0,1,15.069,6.9a20.1,20.1,0,0,0,2.41.64,16.727,16.727,0,0,0,8.306-.567l.171-.04a.924.924,0,0,1,.368,1.806l-.09.03a18.565,18.565,0,0,1-11.3.029,18.125,18.125,0,0,0-5.22-.922,16.654,16.654,0,0,0-4.854.65L4.846,21.383a18.485,18.485,0,0,1,10.223.286,17.416,17.416,0,0,0,10.074.272l.011-10.4s.242-1.071,1.141-.9Zm-3.864,8.3a.959.959,0,0,1,.7,1.463,1.544,1.544,0,0,1-1.2.429,17.9,17.9,0,0,1-3.277-.046.974.974,0,0,1-.813-1.287,1.048,1.048,0,0,1,1.116-.538,16.271,16.271,0,0,0,3.325-.017A.9.9,0,0,1,22.431,18.947Zm-7.407-7.39a3.781,3.781,0,0,1,3.591,3,3.771,3.771,0,0,1-4.287,4.288,3.776,3.776,0,0,1-2.966-3.079,3.782,3.782,0,0,1,3.567-4.212h.1ZM14.988,13.4a1.83,1.83,0,1,0,.7,3.525,1.893,1.893,0,0,0,.929-2.547,1.864,1.864,0,0,0-1.584-.978h-.048ZM9.522,9.715a17.722,17.722,0,0,1,1.825.1c.2.022.821.3.878.823a.958.958,0,0,1-.981,1.022,20.322,20.322,0,0,0-3.532,0,1.2,1.2,0,0,1-.739-.256.952.952,0,0,1,.51-1.576A14.246,14.246,0,0,1,9.522,9.715Z" transform="translate(1 0.767)" fill="#17a3b4"/>
  </g>
</svg>
