<svg xmlns="http://www.w3.org/2000/svg" width="24" height="24" viewBox="0 0 24 24">
  <g id="Group_4283" data-name="Group 4283" transform="translate(-710 -124)">
    <rect id="Rectangle_3323" data-name="Rectangle 3323" width="24" height="24" transform="translate(710 124)" fill="none"/>
    <path id="Subtraction_3" data-name="Subtraction 3" d="M18989.5-3589.33h-15a2.5,2.5,0,0,1-2.5-2.5v-12.5a2.975,2.975,0,0,1,2.475-2.855l12.549-1.792a2.463,2.463,0,0,1,.342-.024,2.109,2.109,0,0,1,2.137,2.174v1.873h-1.877v-1.1l-13.752,1.1v.624h15.629a2.5,2.5,0,0,1,2.5,2.5v10A2.5,2.5,0,0,1,18989.5-3589.33Zm-12.5-7.378,4.9,5.043,5.1-5.043h-2.5v-3.956h-5v3.956Z" transform="translate(-18260 3735.166)" fill="#17a3b4"/>
  </g>
</svg>
