<svg id="Component_41" data-name="Component 41" xmlns="http://www.w3.org/2000/svg" width="20" height="20" viewBox="0 0 20 20">
  <rect id="Rectangle_1829" data-name="Rectangle 1829" width="20" height="20" fill="none"/>
  <g id="PO" transform="translate(1.659 0)">
    <g id="Group_2954" data-name="Group 2954">
      <g id="Group_2949" data-name="Group 2949">
        <path id="Subtraction_6" data-name="Subtraction 6" d="M18193.238-136h-5.129a5.893,5.893,0,0,1-5.768-6v-8a5.893,5.893,0,0,1,5.768-6h4.49l6.408,6.518V-142A5.893,5.893,0,0,1,18193.238-136Zm-5.273-7.988-.842.84,2.6,2.6,4.969-4.969-.84-.836-4.129,4.129Zm4.512-11.835h0l-.1,3.014a3.291,3.291,0,0,0,3.225,3.339l3.256.11-6.375-6.463Z" transform="translate(-18182.342 156)" fill="#fff"/>
      </g>
    </g>
  </g>
</svg>
