<svg id="Group_2567" data-name="Group 2567" xmlns="http://www.w3.org/2000/svg" width="16" height="13.778" viewBox="0 0 16 13.778">
  <path id="Path_1204" data-name="Path 1204" d="M331.166,458.465a3.2,3.2,0,0,0-2.089-.775,3.119,3.119,0,0,0-1.876.612,4.188,4.188,0,0,1-.034,5.165,3.138,3.138,0,0,0,1.91.639,3.207,3.207,0,0,0,2.089-5.641Z" transform="translate(-317.96 -457.659)" fill="#fff"/>
  <circle id="Ellipse_125" data-name="Ellipse 125" cx="3.205" cy="3.205" r="3.205" transform="translate(1.674)" fill="#fff"/>
  <path id="Path_1205" data-name="Path 1205" d="M328.529,470.632a3.671,3.671,0,0,0-1.572-.352h-2.125a1.2,1.2,0,0,0-.155.007,4.655,4.655,0,0,1,1.742,3.275,2.727,2.727,0,0,1-.652,2h3.121a1.748,1.748,0,0,0,1.749-1.742.992.992,0,0,0-.007-.141A3.681,3.681,0,0,0,328.529,470.632Z" transform="translate(-314.636 -461.781)" fill="#fff"/>
  <path id="Path_1206" data-name="Path 1206" d="M339.24,470.226h-2.126a3.683,3.683,0,0,0-3.672,3.4h0a1.748,1.748,0,0,0,1.743,1.883h5.985a1.748,1.748,0,0,0,1.743-1.883h0A3.683,3.683,0,0,0,339.24,470.226Z" transform="translate(-333.437 -461.763)" fill="#fff"/>
</svg>
