<svg id="Component_17" data-name="Component 17" xmlns="http://www.w3.org/2000/svg" width="20" height="20" viewBox="0 0 20 20">
  <rect id="Rectangle_1831" data-name="Rectangle 1831" width="20" height="20" fill="none"/>
  <g id="Group_3000" data-name="Group 3000" transform="translate(2.015 1)">
    <path id="Union_1" data-name="Union 1" d="M3,17.809a3,3,0,0,1-3-3V7.347H16v7.462a3,3,0,0,1-3,3ZM4.424,12.85l2.6,2.6L12,10.486l-.84-.84-4.13,4.13L5.264,12.01ZM16,6.161H0V4.809a3,3,0,0,1,3-3h.988V0H5.175V1.809h5.648V0H12.01V1.809H13a3,3,0,0,1,3,3V6.16h0Z" transform="translate(0 0)" fill="#fff"/>
  </g>
</svg>
