<svg id="Component_43" data-name="Component 43" xmlns="http://www.w3.org/2000/svg" width="20" height="20" viewBox="0 0 20 20">
  <rect id="Rectangle_1829" data-name="Rectangle 1829" width="20" height="20" fill="none"/>
  <g id="_32._Veiw" data-name="32. Veiw" transform="translate(0.938 1.387)">
    <path id="Path_3203" data-name="Path 3203" d="M18.056,8.351A10.644,10.644,0,0,0,9.062,3,10.644,10.644,0,0,0,.068,8.351a.539.539,0,0,0,0,.524,10.644,10.644,0,0,0,8.994,5.351,10.644,10.644,0,0,0,8.994-5.351A.539.539,0,0,0,18.056,8.351Zm-8.994,3.38c-2.085,0-3.776-1.4-3.776-3.118S6.977,5.495,9.062,5.495s3.776,1.4,3.776,3.118-1.692,3.116-3.776,3.118Z" fill="#fff"/>
    <circle id="Ellipse_227" data-name="Ellipse 227" cx="2" cy="2" r="2" transform="translate(7.062 6.613)" fill="#fff"/>
  </g>
</svg>
